<?xml version="1.0" encoding="UTF-8"?>
<svg id="Lager_4" data-name="Lager 4" xmlns="http://www.w3.org/2000/svg" viewBox="0 0 1920 1080">
  <defs>
    <style>
      .cls-1 {
        fill: #fff;
      }
    </style>
  </defs>
  <g>
    <path class="cls-1" d="M446.87,531.9c-21.01-61.2-76.55-103.46-141.03-107.66-50.02-3.26-98.69,18.38-130.96,56.98,4.86-.28,8.82-1.09,12.82-2.55,47.72-51.85,125.42-62.19,185.75-26.19,45.83,27.33,75.33,76.47,74.08,130.35-1.21,52.65-31.04,100.92-78.39,125.37,13.01-26.04,12.85-56.06,1.72-82.49l-5.54-13.77c9.07-4.15,4.43-14.97,1.31-21.56l4.28-1.26c2.81-.83,5.98-2.58,6.81-4.67,3.18-8.12-7.14-12.97-7.31-26.81l-.13-11.33c9.32-9.75.22-14.38-5.21-25.45-2.26-4.59-3.89-13.31-1.45-18.11,7.76-15.22,4.21-31.52-10.14-41.25-10.24-6.95-22.7-9.48-35.56-8.24-16.89-10.72-37.21-11.26-55.2-2.02-21.03,10.79-34.01,27.37-56.07,34.62-12.53,4.12-24.87,4.73-37.56,1.31l-4.76,7.25,11.91,1.82c16.22,2.5,33.18-1.9,47.49-10.08,10.21-5.84,18.78-12.76,28.05-19.77,14.77-11.15,35.48-19.57,53.57-10.91-18.84,7.04-26.79,17.55-39.72,31.87-12.27,13.59-28.31,20.93-46.57,21.24l-31.41.54c-12.14.21-23.42,2.21-34.51,6.52l-4.04,11.15c27.16-17.72,54.67-5.11,87.54-13.5,25.99-6.62,33.07-21.59,49.53-37.66,13.24-12.93,31.55-18.14,49.63-14.19,12.44,2.71,26.28,12.87,24.07,27.16-14.14-18.14-40.96-18.89-56.95-2.29-5.67,5.89-9.96,12.52-14.29,19.57-26.56,43.21-69.26,28.48-112.74,40.87-12.56,3.59-23.49,9.26-33.28,18.2-.69,4.99-.66,10.81-.16,15.65,7.01-19.25,35.86-28.81,53.64-30.66l33.55-3.48c25.18-2.61,47.57-10.52,61.95-32.21,9.68-14.57,19.64-34.34,41.01-32.67,9.57.75,18.4,5,22.13,13.94-17.22-7.28-32.76-.61-41.75,14.14l-14.97,24.57c-10.44,17.14-26,30.66-45.12,37.32-14.11,4.91-28.17,7.13-42.84,9.34-26.15,3.96-52.64,12.56-61.06,40.37,1.53,5.01,3.41,9.87,5.91,14.69.29-31.98,25.5-42.72,52.29-47.19l33.7-5.64c-18.59,17.05-41.05,23.72-57.47,44.03-7.66,9.46-15.9,23.29-12.62,36.09,3.36,10.68,13.7,19.86,21.9,27.48,28.75,26.71,65.7,40.87,104.27,41.3.92,0,6.25-7.48,6.25-7.48,7.52-17.44,6.48-35.95-1.38-52.97-13.68-29.65-35.28-43.44-32.85-84.76l6.86-1.23c-.07,23.41,11.65,38.14,27.58,53.61l14.66,14.23c15.91,15.45,25.9,34.44,22.57,57.16-1.14,7.78-5.5,12.94-11.24,18.8,4.38-.82,8.71-1.82,12.96-2.99l3.87-8.81c3.3-9.33,6.48-16.77,10.2-25.37,10.43-24.13,12.06-54.6-7.37-75.7,2.77-1.78,5.87-3.29,8.83-4.44l6.2,16.1c11.9,30.93,10.79,57.13-6.56,85.76l-4.13,8.95c44.06-15.85,79.01-51.2,93.83-96.1,10.18-30.82,10.11-64.43-.36-94.91ZM192.34,627.69c13.6-14.22,32.19-22.25,48.29-34.38l-.82,19.02c-6.65,5.69-14.63,9.55-22.3,13.72-15.58,8.46-28.48,19.28-39.56,34.23-.79-12.77,5.89-23.69,14.39-32.59ZM294.69,724.94c-44.25-1.07-85.14-21.89-112.5-55.8,8.19-18.49,27.01-30.33,43.5-39.57l15.72-8.82c7.79,32.83,35.55,43.3,49.99,70.3,5.54,10.35,7.5,22.11,3.3,33.89ZM276.09,577.83c-2.88,7.42-12.64-1.02-14.3.04-1.68,21.02,1.66,44.85,12.94,62.3l12.95,20.02c6.16,9.52,10.67,19.34,12,30.33-10.97-20.27-23.58-28.94-38.48-45.79-14.8-18.06-19.24-45.46-7.29-65.67,8.99-3.27,16.33-7.57,24.51-12.65-.5,3.99-1.07,8.14-2.33,11.42ZM295.17,618.92c-11.54-12.73-14.25-30.22-10.3-46.53,1.67-6.86,3.16-13.19,7.73-18.55,2.12,21.58,12.89,38.8,29.15,51.76-8.03,9.11-14.55,15.49-26.58,13.31ZM347.95,693.22c-4.13-25.16-17.2-38.21-36.39-55.73,12.66.41,24.04-5.02,31.53-16.68,18.33,18.44,16.4,50.4,4.86,72.4ZM362.66,604.31c-29.25,3.14-25.23,28.65-53.8,26.07-2.78-.25-5.39-1.75-7.44-3.75,9.03-1.59,16.57-5.76,22.45-12.74,9.2-10.94,19.61-22.34,35.75-17.98,3.13.84,4.66,5.7,3.05,8.4ZM354.03,582.01c-.79.37-1.95,2.18-1.86,2.99.4,3.8,8.37.77,7.36,3.53l-11.78-.73c-3.79-.23-.65-8.03-4.87-10.17-.88-.46-3.64.09-4.18,1.02-1.97,3.38-.31,8.39,2.78,11.42-5.98,2.82-10.87,5.98-15.01,10.26-17.29-13.31-27.03-33.44-27.3-54.81,8.21-10.84,16.98-30.21,25.16-38.67,8.7-8.99,22.27-9.87,31.12-1.42-.86,10.15,1.93,18.71,8.18,26.31,1.75,2.13,2.71,4.56,2.43,7.88-16.93-2.15-28.53-14.94-45.9-.96,1.52,1.74,3.67,3.23,5.66,3.9,6.8-4.21,13.88-3.84,20.9-1.24l16.93,6.27c-1.71,10.91.21,20.52,6,29.52.75,1.18,1.47,3.77.76,4.72-3.52,4.67-9.53-2.98-16.38.19Z"/>
    <path class="cls-1" d="M352.47,550.38c-6.98.11-5.75,6.38-10.71,2.15-2.94-2.51-6.1-4.02-9.52-5.49,4.97-1.77,10.62-3.05,15.57-2.25,1.88.3,4.26,4.39,4.66,5.59Z"/>
  </g>
  <g>
    <g>
      <path class="cls-1" d="M1454.15,698.33l-.93-36.19-17.24,26.99c-6.48,10.15-15.8-17.79-24.89-25.68l-.89,33.57c-1.64,1.16-6.4,1.5-10.08,1.25l.03-56.04c2.89-.26,8.6.02,10.05,2.18l22.7,33.81,22.06-35.78,8.93.17-.02,55.49-9.72.25Z"/>
      <path class="cls-1" d="M1208.76,643.1v54.77l-10.06.56-.9-37.54c-6.58,6.39-17.07,30.61-21.09,31.25-1.32.2-3.54-1.93-4.33-3.09l-18.03-26.5-1.09,35.66-9.82-.05.15-55.15c2.5-.85,8.85-1.14,10.19.9l22.35,34.11,22.12-33.96c1.45-2.24,7.97-1.94,10.52-.96Z"/>
      <path class="cls-1" d="M1009.37,697.26l-12.16-14.54c-2.28-2.73-12.11-1.62-15.03-.47l-.99,16.01-9.98-.75v-55.07c17.26.17,45.29-4.67,48.76,15.27,1.51,8.69-2.03,17.64-12.03,21.7l12.49,18.41c-1.83.46-9.4,1.43-11.07-.57ZM1002.16,672.02c6.38-.94,8.02-8.7,7.13-13.29-.68-3.53-5.91-8.32-10.18-8.37l-16.73-.2-.54,22.55c6.75.24,13,.39,20.32-.69Z"/>
      <path class="cls-1" d="M884.44,642.43l-.03,55.41,10,.42.67-16.53c9.65-.46,15.58-.57,22.66-1.52,10.47-1.4,15.7-11.04,15.53-20.24-.38-22.46-33.57-17.36-48.83-17.54ZM914.19,672.03c-7.22.98-12.35.93-19.34.82l.25-22.38c10.45-.41,25.83-2.6,27.38,9.87.54,4.35-2.4,10.9-8.28,11.7Z"/>
      <path class="cls-1" d="M1357.38,675.52c.1,16.32-12.43,24.72-27.69,24.13-14.46-.54-24.39-9.08-24.23-24.24l.34-32.67,10.62.23.29,32.43c.08,9.31,5.62,15.08,13.74,15.65,8.05.57,16.01-3.94,16.06-13.17l.18-35.14,10.47.05.21,32.74Z"/>
      <path class="cls-1" d="M1099.13,673.77l-28.31.24-.16,15.83,32.52.27.26,8.3-43.44.08.06-56.23,41.5.16c.36,1.81.83,6.04.95,7.87l-31.63.25-.25,15.09,28.47.23.03,7.91Z"/>
      <rect class="cls-1" x="1229.39" y="664.93" width="56.18" height="11.06" transform="translate(584.83 1926.77) rotate(-89.9)"/>
    </g>
    <g>
      <path class="cls-1" d="M1349.72,463.74c-21.82-9.62-47.37-9.62-69.59-.83-23.72,9.39-38.36,30.4-40.33,54.02-2.09,24.91,9.16,48.92,31.61,61.32,25.03,13.82,55.67,14.36,81.06,1.85,21.99-10.85,34.76-31.97,35.28-57.01.56-27.05-14.18-48.81-38.03-59.35ZM1313.72,567.85c-24.98,0-45.23-20.24-45.23-45.2s20.26-45.22,45.23-45.22,45.22,20.24,45.22,45.22-20.26,45.2-45.22,45.2Z"/>
      <path class="cls-1" d="M1554.07,519.81c-1.01-24.13-15.55-45.92-39.4-56.39-23.08-10.14-51.37-9.39-73.98,1.96-22.25,11.19-34.57,32.34-34.47,56.65.1,24.36,11.66,46.69,34.79,58.19,24.5,12.17,53.63,11.55,77.36-.36,23.44-11.76,36.74-34.73,35.69-60.05ZM1479.71,567.78c-24.91,0-45.1-20.19-45.1-45.1s20.19-45.09,45.1-45.09,45.12,20.19,45.12,45.09-20.21,45.1-45.12,45.1Z"/>
      <path class="cls-1" d="M1189,544.85c14.1-5.26,24.08-16.24,26.92-28.83,3.38-14.98.96-30.25-10.08-40.69-9.28-8.77-22.61-14.28-35.84-14.36l-68.07-.38.02,128.12,27.52.1.11-39.48,33.14-.08,29.03,39.83,29.34-.64-32.1-43.58ZM1169.27,527.21c-13.46,1.31-26.09,1.03-39.43.96l-.18-45.98,37.54.49c12.81.18,22.18,9.2,22.59,20.99.39,10.99-6.84,22.22-20.52,23.54Z"/>
      <path class="cls-1" d="M902.56,566.28c16.5,1.36,30.38-2.91,41.07-14.52l17.25,15.86c-20.42,24.25-62.15,26.02-88.6,14.86-36.11-15.24-50.28-58.76-30.28-92.83,23.04-39.25,87.81-44.11,119.16-11.84l-17.06,15.87c-15.52-14.05-35.58-18.03-54.6-11.5-19.73,6.78-29.81,24.87-27.81,45.58,2.02,20.96,18.65,36.69,40.88,38.53Z"/>
      <polygon class="cls-1" points="1083.48 567.13 1083.32 588.92 979.8 589.07 979.61 460.64 1081.46 460.71 1081.46 482.09 1007.67 482.47 1007.62 513.18 1072.81 513.47 1073.29 533.92 1007.61 534.43 1007.52 566.95 1083.48 567.13"/>
      <polygon class="cls-1" points="638.37 518.3 638.42 539.72 572.61 540 572.31 589.07 544.18 588.82 544.35 460.64 645.64 460.87 645.82 482.32 572.75 482.79 572.67 518.16 638.37 518.3"/>
      <path class="cls-1" d="M1687.73,482.29l-43.32.31.05,105.77c-8.77.77-17.79.8-27.69.59l-.13-106.11-43.75-.21-.31-21.86,115.15.11v21.4Z"/>
      <path class="cls-1" d="M753.41,460.53l-27.95.13-61.19,127.81,29.01.57,13.35-28.99,65.86.05,13.15,28.98,28.78-1-61.01-127.55ZM715.88,539.34l23.83-51.52,23.9,51.18-47.73.34Z"/>
      <path class="cls-1" d="M1718.21,552.78c8.52,9.07,21.85,17.03,39.06,17.03s24.81-8.7,24.81-16.85c0-11.11-13.14-14.44-28.14-18.33-20.18-5-43.88-10.92-43.88-37.03,0-20.36,17.96-36.1,44.99-36.1,19.25,0,34.81,6.11,46.28,17.22l-12.4,16.11c-9.63-9.63-22.77-14.07-35.73-14.07s-20.92,6.11-20.92,15.37,12.59,12.77,27.21,16.48c20.37,5.18,44.62,11.48,44.62,38.32,0,20.55-14.44,38.14-47.76,38.14-22.77,0-39.25-7.96-50.17-19.62l12.03-16.66Z"/>
    </g>
  </g>
</svg>