<?xml version="1.0" encoding="UTF-8"?>
<svg id="Lager_2" data-name="Lager 2" xmlns="http://www.w3.org/2000/svg" viewBox="0 0 626.99 590.27">
  <defs>
    <style>
      .cls-1 {
        fill: #fff;
      }
    </style>
  </defs>
  <path class="cls-1" d="M483.94,253.22c-23.38-68.11-85.19-115.14-156.96-119.82-55.67-3.63-109.83,20.46-145.75,63.41,5.41-.31,9.82-1.21,14.27-2.84,53.11-57.71,139.58-69.21,206.73-29.15,51,30.42,83.84,85.1,82.45,145.07-1.35,58.59-34.55,112.32-87.24,139.53,14.48-28.98,14.3-62.39,1.91-91.8l-6.16-15.33c10.09-4.62,4.93-16.66,1.46-23.99l4.76-1.4c3.13-.92,6.66-2.87,7.58-5.2,3.54-9.04-7.95-14.43-8.14-29.84l-.15-12.61c10.37-10.85.25-16-5.8-28.32-2.51-5.11-4.33-14.81-1.61-20.15,8.64-16.94,4.68-35.08-11.29-45.91-11.4-7.74-25.26-10.55-39.57-9.17-18.8-11.93-41.41-12.53-61.43-2.25-23.41,12.01-37.85,30.46-62.4,38.53-13.94,4.58-27.68,5.26-41.8,1.46l-5.3,8.07,13.26,2.03c18.05,2.78,36.93-2.11,52.85-11.22,11.36-6.5,20.9-14.2,31.22-22,16.44-12.41,39.49-21.78,59.62-12.14-20.97,7.83-29.82,19.53-44.21,35.47-13.66,15.13-31.51,23.29-51.83,23.64l-34.96.6c-13.51.23-26.07,2.46-38.41,7.26l-4.5,12.41c30.23-19.72,60.84-5.69,97.43-15.02,28.92-7.37,36.8-24.03,55.12-41.91,14.74-14.39,35.11-20.19,55.23-15.79,13.84,3.02,29.25,14.32,26.79,30.23-15.74-20.19-45.59-21.02-63.38-2.55-6.31,6.55-11.08,13.93-15.9,21.78-29.56,48.09-77.08,31.7-125.47,45.49-13.98,3.99-26.14,10.31-37.04,20.26-.77,5.55-.73,12.03-.18,17.42,7.8-21.42,39.91-32.06,59.7-34.12l37.34-3.87c28.02-2.91,52.94-11.71,68.95-35.85,10.77-16.22,21.86-38.22,45.64-36.36,10.65.83,20.48,5.57,24.63,15.51-19.16-8.1-36.46-.68-46.47,15.74l-16.66,27.35c-11.62,19.08-28.94,34.12-50.21,41.53-15.7,5.47-31.35,7.93-47.68,10.4-29.1,4.41-58.58,13.98-67.96,44.93,1.7,5.58,3.79,10.99,6.58,16.35.32-35.59,28.38-47.54,58.19-52.52l37.5-6.28c-20.69,18.98-45.68,26.4-63.96,49-8.52,10.53-17.69,25.92-14.05,40.17,3.74,11.89,15.25,22.1,24.37,30.58,32,29.73,73.12,45.49,116.04,45.96,1.02,0,6.96-8.33,6.96-8.33,8.37-19.41,7.21-40.01-1.54-58.95-15.23-33-39.26-48.34-36.56-94.33l7.64-1.37c-.08,26.05,12.97,42.45,30.69,59.66l16.31,15.84c17.71,17.2,28.82,38.33,25.12,63.62-1.27,8.66-6.12,14.4-12.51,20.92,4.88-.91,9.69-2.02,14.42-3.33l4.31-9.81c3.67-10.38,7.21-18.66,11.35-28.24,11.61-26.85,13.42-60.77-8.2-84.25,3.08-1.98,6.53-3.66,9.83-4.94l6.9,17.92c13.24,34.42,12.01,63.58-7.3,95.44l-4.6,9.96c49.03-17.64,87.93-56.98,104.43-106.95,11.33-34.3,11.25-71.71-.4-105.63ZM200.66,359.82c15.14-15.83,35.82-24.76,53.74-38.26l-.91,21.17c-7.4,6.33-16.28,10.63-24.82,15.27-17.34,9.42-31.7,21.46-44.03,38.09-.88-14.21,6.56-26.37,16.02-36.27ZM314.57,468.06c-49.25-1.19-94.75-24.36-125.2-62.1,9.11-20.58,30.06-33.75,48.41-44.04l17.49-9.82c8.67,36.54,39.56,48.19,55.63,78.24,6.16,11.52,8.35,24.61,3.67,37.72ZM293.87,304.34c-3.2,8.26-14.07-1.14-15.92.05-1.87,23.39,1.85,49.92,14.4,69.33l14.41,22.28c6.85,10.6,11.87,21.52,13.36,33.76-12.21-22.56-26.24-32.21-42.83-50.96-16.47-20.1-21.41-50.59-8.11-73.09,10-3.64,18.17-8.42,27.28-14.08-.56,4.44-1.19,9.06-2.59,12.71ZM315.11,350.06c-12.84-14.17-15.86-33.63-11.46-51.78,1.86-7.64,3.52-14.68,8.6-20.64,2.36,24.02,14.34,43.18,32.44,57.61-8.94,10.14-16.19,17.24-29.58,14.81ZM373.84,432.75c-4.6-28-19.14-42.53-40.5-62.02,14.09.46,26.76-5.59,35.09-18.56,20.4,20.52,18.25,56.09,5.41,80.58ZM390.22,333.8c-32.55,3.49-28.08,31.88-59.88,29.01-3.09-.28-6-1.95-8.28-4.17,10.05-1.77,18.44-6.41,24.98-14.18,10.24-12.18,21.82-24.86,39.79-20.01,3.48.94,5.19,6.34,3.39,9.35ZM380.61,308.99c-.88.41-2.17,2.43-2.07,3.33.45,4.23,9.32.86,8.19,3.93l-13.11-.81c-4.22-.26-.72-8.94-5.42-11.32-.98-.51-4.05.1-4.65,1.13-2.19,3.76-.35,9.34,3.09,12.71-6.65,3.14-12.1,6.65-16.7,11.42-19.24-14.81-30.08-37.22-30.38-61,9.14-12.06,18.9-33.62,28-43.04,9.68-10.01,24.79-10.99,34.63-1.58-.96,11.3,2.15,20.82,9.1,29.28,1.95,2.37,3.02,5.07,2.7,8.77-18.84-2.39-31.75-16.63-51.08-1.07,1.69,1.94,4.09,3.59,6.3,4.34,7.57-4.68,15.45-4.27,23.26-1.38l18.84,6.98c-1.9,12.14.23,22.84,6.68,32.85.84,1.31,1.64,4.2.85,5.25-3.92,5.2-10.61-3.32-18.23.21Z"/>
  <path class="cls-1" d="M378.87,273.79c-7.76.12-6.4,7.1-11.92,2.4-3.28-2.79-6.78-4.48-10.59-6.11,5.54-1.97,11.82-3.39,17.33-2.5,2.09.34,4.74,4.88,5.18,6.22Z"/>
</svg>