<?xml version="1.0" encoding="UTF-8"?>
<svg id="Lager_2" data-name="Lager 2" xmlns="http://www.w3.org/2000/svg" viewBox="0 0 626.99 590.27">
  <defs>
    <style>
      .cls-1 {
        fill: #0d0d0d;
      }
    </style>
  </defs>
  <path class="cls-1" d="M564.34,205.05C527.04,96.41,428.45,21.39,313.97,13.93c-88.8-5.79-175.19,32.64-232.48,101.14,8.63-.49,15.66-1.93,22.76-4.53C188.97,18.49,326.89.14,434,64.04c81.35,48.52,133.73,135.74,131.51,231.4-2.15,93.46-55.11,179.16-139.16,222.56,23.1-46.23,22.81-99.52,3.05-146.43l-9.83-24.45c16.09-7.37,7.86-26.57,2.33-38.27l7.59-2.23c4.99-1.47,10.62-4.58,12.09-8.29,5.65-14.42-12.68-23.02-12.98-47.6l-.24-20.11c16.54-17.31.4-25.52-9.25-45.17-4-8.15-6.91-23.62-2.57-32.14,13.78-27.02,7.46-55.96-18.01-73.23-18.18-12.35-40.29-16.83-63.12-14.63-29.99-19.03-66.05-19.99-97.99-3.59-37.34,19.16-60.37,48.59-99.53,61.46-22.24,7.31-44.15,8.39-66.67,2.33l-8.45,12.87,21.15,3.24c28.79,4.43,58.91-3.37,84.3-17.9,18.12-10.37,33.34-22.65,49.8-35.09,26.22-19.8,62.99-34.74,95.1-19.36-33.45,12.49-47.57,31.15-70.52,56.58-21.79,24.13-50.26,37.15-82.67,37.71l-55.76.96c-21.55.37-41.58,3.92-61.27,11.58l-7.18,19.79c48.22-31.45,97.04-9.08,155.41-23.96,46.13-11.76,58.7-38.33,87.92-66.85,23.51-22.95,56-32.2,88.1-25.19,22.08,4.82,46.66,22.84,42.73,48.22-25.11-32.2-72.72-33.53-101.1-4.07-10.06,10.45-17.67,22.22-25.36,34.74-47.15,76.71-122.95,50.56-200.14,72.56-22.3,6.36-41.7,16.45-59.08,32.32-1.23,8.85-1.16,19.19-.29,27.79,12.44-34.17,63.66-51.14,95.23-54.42l59.56-6.17c44.69-4.64,84.44-18.68,109.98-57.18,17.18-25.87,34.87-60.96,72.8-58,16.99,1.32,32.67,8.88,39.29,24.74-30.56-12.92-58.16-1.08-74.12,25.11l-26.57,43.63c-18.53,30.43-46.16,54.42-80.09,66.24-25.04,8.73-50.01,12.65-76.05,16.59-46.42,7.03-93.44,22.3-108.4,71.67,2.71,8.9,6.05,17.53,10.5,26.08.51-56.77,45.27-75.83,92.82-83.77l59.82-10.02c-33,30.27-72.86,42.11-102.02,78.16-13.59,16.8-28.22,41.34-22.41,64.07,5.97,18.97,24.33,35.25,38.87,48.78,51.04,47.42,116.63,72.56,185.09,73.31,1.63,0,11.1-13.29,11.1-13.29,13.35-30.96,11.5-63.82-2.46-94.03-24.29-52.64-62.62-77.11-58.32-150.46l12.19-2.19c-.13,41.55,20.69,67.71,48.95,95.16l26.02,25.27c28.25,27.44,45.97,61.14,40.07,101.48-2.03,13.81-9.76,22.97-19.95,33.37,7.78-1.45,15.46-3.22,23-5.31l6.87-15.65c5.85-16.56,11.5-29.76,18.1-45.05,18.52-42.83,21.41-96.93-13.08-134.39,4.91-3.16,10.42-5.84,15.68-7.88l11.01,28.58c21.12,54.9,19.16,101.42-11.64,152.23l-7.34,15.89c78.21-28.14,140.26-90.89,166.57-170.59,18.07-54.71,17.94-114.38-.64-168.49ZM112.48,375.08c24.15-25.25,57.14-39.49,85.72-61.03l-1.45,33.77c-11.8,10.1-25.97,16.96-39.59,24.36-27.66,15.03-50.56,34.23-70.23,60.76-1.4-22.67,10.46-42.06,25.55-57.85ZM294.18,547.74c-78.56-1.9-151.13-38.86-199.7-99.05,14.53-32.83,47.95-53.83,77.22-70.25l27.9-15.66c13.83,58.28,63.1,76.87,88.73,124.8,9.83,18.38,13.32,39.25,5.85,60.17ZM261.16,286.59c-5.1,13.18-22.44-1.82-25.39.08-2.98,37.31,2.95,79.63,22.97,110.59l22.99,35.54c10.93,16.91,18.93,34.33,21.31,53.85-19.48-35.99-41.86-51.38-68.32-81.29-26.27-32.06-34.15-80.7-12.94-116.58,15.95-5.81,28.98-13.43,43.51-22.46-.89,7.08-1.9,14.45-4.13,20.27ZM295.04,359.52c-20.48-22.6-25.3-53.64-18.28-82.59,2.97-12.19,5.61-23.42,13.72-32.92,3.76,38.31,22.87,68.88,51.74,91.89-14.26,16.17-25.82,27.5-47.18,23.62ZM388.72,491.41c-7.34-44.66-30.53-67.84-64.6-98.93,22.47.73,42.68-8.92,55.97-29.6,32.54,32.73,29.11,89.47,8.63,128.53ZM414.85,333.58c-51.92,5.57-44.79,50.85-95.51,46.27-4.93-.45-9.57-3.11-13.21-6.65,16.03-2.82,29.41-10.22,39.85-22.62,16.33-19.43,34.8-39.65,63.47-31.92,5.55,1.5,8.28,10.11,5.41,14.91ZM399.52,294.01c-1.4.65-3.46,3.88-3.3,5.31.72,6.75,14.87,1.37,13.06,6.27l-20.91-1.29c-6.73-.41-1.15-14.26-8.65-18.06-1.56-.81-6.46.16-7.42,1.8-3.49,6-.56,14.9,4.93,20.27-10.61,5.01-19.3,10.61-26.64,18.22-30.69-23.62-47.98-59.37-48.46-97.3,14.58-19.24,30.15-53.63,44.66-68.65,15.44-15.97,39.54-17.53,55.24-2.52-1.53,18.02,3.43,33.21,14.52,46.7,3.11,3.78,4.82,8.09,4.31,13.99-30.05-3.81-50.64-26.53-81.48-1.71,2.7,3.09,6.52,5.73,10.05,6.92,12.07-7.46,24.64-6.81,37.1-2.2l30.05,11.13c-3.03,19.36.37,36.43,10.66,52.4,1.34,2.09,2.62,6.7,1.36,8.37-6.25,8.29-16.92-5.3-29.08.34Z"/>
  <path class="cls-1" d="M396.75,237.86c-12.39.19-10.2,11.32-19.02,3.82-5.23-4.45-10.82-7.14-16.89-9.75,8.83-3.14,18.86-5.41,27.64-3.99,3.33.54,7.57,7.79,8.26,9.92Z"/>
</svg>