<?xml version="1.0" encoding="UTF-8"?>
<svg id="Lager_2" data-name="Lager 2" xmlns="http://www.w3.org/2000/svg" viewBox="0 0 1920 1080">
  <defs>
    <style>
      .cls-1 {
        fill: #735943;
      }
    </style>
  </defs>
  <g>
    <path class="cls-1" d="M1236.62,661.13l-.93-36.19-17.24,26.99c-6.48,10.15-15.8-17.79-24.89-25.68l-.89,33.57c-1.64,1.16-6.4,1.5-10.08,1.25l.03-56.04c2.89-.26,8.6.02,10.05,2.18l22.7,33.81,22.06-35.78,8.93.17-.02,55.49-9.72.25Z"/>
    <path class="cls-1" d="M991.22,605.89v54.77l-10.06.56-.9-37.54c-6.58,6.39-17.07,30.61-21.09,31.25-1.32.2-3.54-1.93-4.33-3.09l-18.03-26.5-1.09,35.66-9.82-.05.15-55.15c2.5-.85,8.85-1.14,10.19.9l22.35,34.11,22.12-33.96c1.45-2.24,7.97-1.94,10.52-.96Z"/>
    <path class="cls-1" d="M791.83,660.05l-12.16-14.54c-2.28-2.73-12.11-1.62-15.03-.47l-.99,16.01-9.98-.75v-55.07c17.26.17,45.29-4.67,48.76,15.27,1.51,8.69-2.03,17.64-12.03,21.7l12.49,18.41c-1.83.46-9.4,1.43-11.07-.57ZM784.62,634.82c6.38-.94,8.02-8.7,7.13-13.29-.68-3.53-5.91-8.32-10.18-8.37l-16.73-.2-.54,22.55c6.75.24,13,.39,20.32-.69Z"/>
    <path class="cls-1" d="M666.91,605.22l-.03,55.41,10,.42.67-16.53c9.65-.46,15.58-.57,22.66-1.52,10.47-1.4,15.7-11.04,15.53-20.24-.38-22.46-33.57-17.36-48.83-17.54ZM696.65,634.82c-7.22.98-12.35.93-19.34.82l.25-22.38c10.45-.41,25.83-2.6,27.38,9.87.54,4.35-2.4,10.9-8.28,11.7Z"/>
    <path class="cls-1" d="M1139.84,638.32c.1,16.32-12.43,24.72-27.69,24.13-14.46-.54-24.39-9.08-24.23-24.24l.34-32.67,10.62.23.29,32.43c.08,9.31,5.62,15.08,13.74,15.65,8.05.57,16.01-3.94,16.06-13.17l.18-35.14,10.47.05.21,32.74Z"/>
    <path class="cls-1" d="M881.6,636.57l-28.31.24-.16,15.83,32.52.27.26,8.3-43.44.08.06-56.23,41.5.16c.36,1.81.83,6.04.95,7.87l-31.63.25-.25,15.09,28.47.23.03,7.91Z"/>
    <rect class="cls-1" x="1011.86" y="627.72" width="56.18" height="11.06" transform="translate(404.88 1672.09) rotate(-89.9)"/>
  </g>
  <g>
    <path class="cls-1" d="M1131.02,415.85c-21.68-9.56-47.06-9.56-69.13-.83-23.56,9.33-38.1,30.2-40.06,53.66-2.08,24.75,9.1,48.6,31.4,60.92,24.86,13.73,55.3,14.26,80.52,1.83,21.84-10.77,34.53-31.76,35.05-56.63.55-26.87-14.09-48.49-37.78-58.95ZM1095.26,519.27c-24.81,0-44.93-20.11-44.93-44.9s20.12-44.92,44.93-44.92,44.92,20.11,44.92,44.92-20.12,44.9-44.92,44.9Z"/>
    <path class="cls-1" d="M1334.02,471.55c-1.01-23.97-15.45-45.61-39.14-56.02-22.93-10.08-51.03-9.33-73.49,1.95-22.1,11.12-34.34,32.13-34.24,56.28.1,24.19,11.59,46.38,34.56,57.8,24.34,12.09,53.27,11.47,76.85-.36,23.29-11.68,36.49-34.5,35.46-59.65ZM1260.15,519.21c-24.75,0-44.8-20.06-44.8-44.8s20.06-44.79,44.8-44.79,44.82,20.06,44.82,44.79-20.07,44.8-44.82,44.8Z"/>
    <path class="cls-1" d="M971.37,496.43c14-5.23,23.92-16.13,26.74-28.64,3.36-14.88.96-30.05-10.01-40.42-9.22-8.71-22.46-14.18-35.6-14.26l-67.62-.37.02,127.27,27.34.1.11-39.22,32.92-.08,28.84,39.56,29.14-.63-31.89-43.29ZM951.77,478.9c-13.37,1.3-25.91,1.02-39.17.96l-.18-45.68,37.29.49c12.72.18,22.04,9.14,22.44,20.85.39,10.92-6.8,22.07-20.38,23.38Z"/>
    <path class="cls-1" d="M686.83,517.71c16.39,1.36,30.18-2.89,40.8-14.43l17.13,15.75c-20.28,24.09-61.74,25.85-88.02,14.76-35.87-15.14-49.95-58.37-30.08-92.21,22.89-38.99,87.23-43.81,118.37-11.76l-16.95,15.77c-15.42-13.96-35.34-17.91-54.24-11.42-19.6,6.73-29.61,24.71-27.62,45.28,2.01,20.82,18.52,36.44,40.6,38.27Z"/>
    <polygon class="cls-1" points="866.55 518.56 866.39 540.21 763.55 540.35 763.36 412.77 864.54 412.84 864.54 434.08 791.24 434.45 791.19 464.96 855.95 465.25 856.42 485.57 791.17 486.07 791.09 518.38 866.55 518.56"/>
    <polygon class="cls-1" points="424.38 470.06 424.43 491.33 359.05 491.61 358.76 540.35 330.82 540.11 330.98 412.77 431.6 413 431.78 434.31 359.2 434.78 359.12 469.91 424.38 470.06"/>
    <path class="cls-1" d="M1466.79,434.28l-43.03.31.05,105.07c-8.71.76-17.67.8-27.5.58l-.13-105.41-43.46-.21-.31-21.71,114.39.11v21.26Z"/>
    <path class="cls-1" d="M538.66,412.66l-27.76.13-60.79,126.96,28.82.57,13.26-28.8,65.43.05,13.06,28.79,28.59-.99-60.61-126.7ZM501.37,490.96l23.68-51.18,23.74,50.84-47.42.34Z"/>
    <path class="cls-1" d="M1497.08,504.31c8.46,9.01,21.7,16.92,38.81,16.92s24.64-8.64,24.64-16.74c0-11.03-13.06-14.34-27.95-18.21-20.05-4.97-43.59-10.85-43.59-36.78,0-20.23,17.84-35.86,44.69-35.86,19.13,0,34.57,6.07,45.98,17.1l-12.32,16c-9.56-9.56-22.62-13.98-35.49-13.98s-20.78,6.07-20.78,15.26,12.51,12.69,27.03,16.37c20.23,5.15,44.32,11.4,44.32,38.07,0,20.41-14.34,37.89-47.45,37.89-22.62,0-38.99-7.91-49.84-19.49l11.95-16.55Z"/>
  </g>
</svg>