<?xml version="1.0" encoding="UTF-8"?>
<svg id="Lager_2" data-name="Lager 2" xmlns="http://www.w3.org/2000/svg" viewBox="0 0 1920 1080">
  <defs>
    <style>
      .cls-1 {
        fill: #735943;
      }
    </style>
  </defs>
  <g>
    <path class="cls-1" d="M566.23,478.58c-27.99-81.55-102-137.86-187.93-143.46-66.66-4.35-131.5,24.5-174.51,75.92,6.48-.37,11.76-1.45,17.09-3.4,63.59-69.1,167.12-82.87,247.53-34.9,61.06,36.42,100.38,101.89,98.72,173.7-1.62,70.15-41.37,134.48-104.46,167.06,17.34-34.7,17.12-74.7,2.29-109.92l-7.38-18.36c12.08-5.53,5.9-19.95,1.75-28.72l5.7-1.68c3.75-1.1,7.97-3.44,9.08-6.23,4.24-10.82-9.52-17.28-9.75-35.73l-.18-15.1c12.42-12.99.3-19.16-6.94-33.91-3.01-6.12-5.18-17.73-1.93-24.13,10.34-20.28,5.6-42-13.52-54.97-13.65-9.27-30.24-12.63-47.38-10.98-22.51-14.28-49.58-15-73.55-2.69-28.03,14.38-45.32,36.47-74.71,46.13-16.69,5.48-33.14,6.3-50.05,1.75l-6.35,9.66,15.88,2.43c21.61,3.33,44.22-2.53,63.28-13.43,13.6-7.78,25.02-17,37.38-26.34,19.68-14.86,47.28-26.08,71.39-14.54-25.11,9.38-35.7,23.38-52.93,42.47-16.36,18.12-37.73,27.89-62.06,28.3l-41.86.72c-16.18.28-31.21,2.95-45.99,8.69l-5.39,14.86c36.2-23.61,72.85-6.81,116.66-17.98,34.63-8.82,44.06-28.77,66-50.18,17.65-17.23,42.04-24.17,66.13-18.91,16.57,3.62,35.02,17.15,32.08,36.2-18.85-24.17-54.59-25.17-75.89-3.05-7.56,7.84-13.27,16.68-19.04,26.08-35.39,57.58-92.29,37.96-150.23,54.47-16.74,4.78-31.3,12.34-44.35,24.26-.92,6.65-.87,14.4-.22,20.86,9.34-25.65,47.79-38.39,71.48-40.85l44.71-4.63c33.55-3.48,63.39-14.02,82.56-42.92,12.9-19.42,26.17-45.76,54.65-43.54,12.75.99,24.52,6.67,29.49,18.57-22.94-9.7-43.65-.81-55.64,18.85l-19.95,32.75c-13.91,22.85-34.65,40.85-60.12,49.73-18.8,6.55-37.54,9.49-57.09,12.45-34.84,5.28-70.14,16.74-81.37,53.8,2.04,6.68,4.54,13.16,7.88,19.58.38-42.61,33.98-56.92,69.67-62.88l44.9-7.52c-24.77,22.73-54.69,31.61-76.58,58.67-10.2,12.61-21.18,31.03-16.82,48.1,4.48,14.24,18.26,26.46,29.18,36.61,38.31,35.6,87.55,54.47,138.94,55.03,1.22,0,8.33-9.97,8.33-9.97,10.02-23.24,8.63-47.91-1.84-70.58-18.24-39.51-47.01-57.88-43.77-112.94l9.15-1.64c-.1,31.19,15.53,50.83,36.75,71.43l19.53,18.97c21.2,20.59,34.51,45.89,30.08,76.17-1.52,10.37-7.33,17.24-14.98,25.05,5.84-1.09,11.6-2.42,17.27-3.99l5.16-11.75c4.39-12.43,8.63-22.34,13.59-33.81,13.9-32.15,16.07-72.76-9.82-100.88,3.69-2.37,7.82-4.38,11.77-5.91l8.26,21.46c15.85,41.21,14.38,76.13-8.74,114.27l-5.51,11.93c58.71-21.12,105.28-68.22,125.04-128.06,13.57-41.07,13.47-85.86-.48-126.47ZM227.05,606.22c18.13-18.95,42.89-29.65,64.34-45.81l-1.09,25.35c-8.86,7.58-19.49,12.73-29.72,18.28-20.76,11.28-37.96,25.69-52.72,45.61-1.05-17.01,7.85-31.57,19.18-43.43ZM363.44,735.82c-58.97-1.42-113.45-29.17-149.91-74.35,10.91-24.64,35.99-40.41,57.96-52.73l20.94-11.76c10.38,43.75,47.37,57.7,66.61,93.68,7.38,13.79,10,29.47,4.39,45.16ZM338.66,539.79c-3.83,9.89-16.85-1.36-19.06.06-2.24,28.01,2.22,59.77,17.24,83.01l17.25,26.68c8.2,12.69,14.21,25.77,16,40.42-14.62-27.01-31.42-38.57-51.28-61.02-19.72-24.07-25.63-60.57-9.71-87.51,11.97-4.36,21.76-10.08,32.66-16.86-.67,5.32-1.42,10.85-3.1,15.22ZM364.09,594.53c-15.37-16.97-18.99-40.27-13.72-62,2.23-9.15,4.21-17.58,10.3-24.71,2.83,28.76,17.17,51.7,38.84,68.98-10.7,12.14-19.38,20.64-35.42,17.73ZM434.41,693.54c-5.51-33.53-22.92-50.92-48.49-74.26,16.87.55,32.04-6.69,42.01-22.22,24.43,24.57,21.85,67.16,6.48,96.48ZM454.02,575.06c-38.97,4.18-33.62,38.17-71.7,34.73-3.7-.34-7.18-2.33-9.91-4.99,12.03-2.12,22.08-7.67,29.91-16.98,12.26-14.58,26.13-29.77,47.64-23.96,4.17,1.13,6.21,7.59,4.06,11.2ZM442.51,545.36c-1.05.49-2.6,2.91-2.48,3.99.54,5.06,11.16,1.03,9.81,4.71l-15.7-.97c-5.05-.31-.86-10.7-6.49-13.55-1.17-.61-4.85.12-5.57,1.35-2.62,4.5-.42,11.18,3.7,15.22-7.96,3.76-14.49,7.96-20,13.67-23.04-17.73-36.02-44.56-36.37-73.04,10.94-14.44,22.63-40.25,33.53-51.53,11.59-11.99,29.68-13.16,41.46-1.89-1.15,13.53,2.57,24.93,10.9,35.06,2.33,2.84,3.62,6.07,3.23,10.5-22.56-2.86-38.02-19.91-61.16-1.28,2.02,2.32,4.9,4.3,7.54,5.2,9.06-5.6,18.5-5.11,27.85-1.65l22.56,8.36c-2.27,14.54.28,27.35,8,39.33,1.01,1.57,1.96,5.03,1.02,6.29-4.69,6.23-12.7-3.98-21.83.25Z"/>
    <path class="cls-1" d="M440.43,503.21c-9.3.14-7.66,8.5-14.27,2.87-3.92-3.34-8.12-5.36-12.68-7.32,6.63-2.36,14.15-4.06,20.75-3,2.5.4,5.68,5.85,6.2,7.45Z"/>
  </g>
  <g>
    <path class="cls-1" d="M1458.79,424.85c-21.82-9.62-47.37-9.62-69.59-.83-23.72,9.39-38.36,30.4-40.33,54.02-2.09,24.91,9.16,48.92,31.61,61.32,25.03,13.82,55.67,14.36,81.06,1.85,21.99-10.85,34.76-31.97,35.28-57.01.56-27.05-14.18-48.81-38.03-59.35ZM1422.79,528.95c-24.98,0-45.23-20.24-45.23-45.2s20.26-45.22,45.23-45.22,45.22,20.24,45.22,45.22-20.26,45.2-45.22,45.2Z"/>
    <path class="cls-1" d="M1666.98,481.09c-1.01-24.13-15.55-45.92-39.4-56.39-23.08-10.14-51.37-9.39-73.98,1.96-22.25,11.19-34.57,32.34-34.47,56.65.1,24.36,11.66,46.69,34.79,58.19,24.5,12.17,53.63,11.55,77.36-.36,23.44-11.76,36.74-34.73,35.69-60.05ZM1592.63,529.07c-24.91,0-45.1-20.19-45.1-45.1s20.19-45.09,45.1-45.09,45.12,20.19,45.12,45.09-20.21,45.1-45.12,45.1Z"/>
    <path class="cls-1" d="M1295.57,504.11c14.1-5.26,24.08-16.24,26.92-28.83,3.38-14.98.96-30.25-10.08-40.69-9.28-8.77-22.61-14.28-35.84-14.36l-68.07-.38.02,128.12,27.52.1.11-39.48,33.14-.08,29.03,39.83,29.34-.64-32.1-43.58ZM1275.84,486.47c-13.46,1.31-26.09,1.03-39.43.96l-.18-45.98,37.54.49c12.81.18,22.18,9.2,22.59,20.99.39,10.99-6.84,22.22-20.52,23.54Z"/>
    <path class="cls-1" d="M982.11,527.31c16.5,1.36,30.38-2.91,41.07-14.52l17.25,15.86c-20.42,24.25-62.15,26.02-88.6,14.86-36.11-15.24-50.28-58.76-30.28-92.83,23.04-39.25,87.81-44.11,119.16-11.84l-17.06,15.87c-15.52-14.05-35.58-18.03-54.6-11.5-19.73,6.78-29.81,24.87-27.81,45.58,2.02,20.96,18.65,36.69,40.88,38.53Z"/>
    <polygon class="cls-1" points="1173.66 526.29 1173.5 548.08 1069.98 548.23 1069.79 419.8 1171.64 419.87 1171.64 441.25 1097.85 441.63 1097.8 472.34 1162.99 472.63 1163.47 493.08 1097.78 493.59 1097.7 526.11 1173.66 526.29"/>
    <polygon class="cls-1" points="738.03 477.32 738.08 498.73 672.27 499.01 671.97 548.08 643.84 547.84 644.01 419.66 745.3 419.88 745.48 441.33 672.42 441.81 672.33 477.17 738.03 477.32"/>
    <path class="cls-1" d="M1791.9,441.28l-43.32.31.05,105.77c-8.77.77-17.79.8-27.69.59l-.13-106.11-43.75-.21-.31-21.86,115.15.11v21.4Z"/>
    <path class="cls-1" d="M841.29,419.77l-27.95.13-61.19,127.81,29.01.57,13.35-28.99,65.86.05,13.15,28.98,28.78-1-61.01-127.55ZM803.75,498.59l23.83-51.52,23.9,51.18-47.73.34Z"/>
    <path class="cls-1" d="M1494.49,661.13l-.93-36.19-17.24,26.99c-6.48,10.15-15.8-17.79-24.89-25.68l-.89,33.57c-1.64,1.16-6.4,1.5-10.08,1.25l.03-56.04c2.89-.26,8.6.02,10.05,2.18l22.7,33.81,22.06-35.78,8.93.17-.02,55.49-9.72.25Z"/>
    <path class="cls-1" d="M1249.1,605.89v54.77l-10.06.56-.9-37.54c-6.58,6.39-17.07,30.61-21.09,31.25-1.32.2-3.54-1.93-4.33-3.09l-18.03-26.5-1.09,35.66-9.82-.05.15-55.15c2.5-.85,8.85-1.14,10.19.9l22.35,34.11,22.12-33.96c1.45-2.24,7.97-1.94,10.52-.96Z"/>
    <path class="cls-1" d="M1049.71,660.05l-12.16-14.54c-2.28-2.73-12.11-1.62-15.03-.47l-.99,16.01-9.98-.75v-55.07c17.26.17,45.29-4.67,48.76,15.27,1.51,8.69-2.03,17.64-12.03,21.7l12.49,18.41c-1.83.46-9.4,1.43-11.07-.57ZM1042.5,634.82c6.38-.94,8.02-8.7,7.13-13.29-.68-3.53-5.91-8.32-10.18-8.37l-16.73-.2-.54,22.55c6.75.24,13,.39,20.32-.69Z"/>
    <path class="cls-1" d="M924.78,605.22l-.03,55.41,10,.42.67-16.53c9.65-.46,15.58-.57,22.66-1.52,10.47-1.4,15.7-11.04,15.53-20.24-.38-22.46-33.57-17.36-48.83-17.54ZM954.52,634.82c-7.22.98-12.35.93-19.34.82l.25-22.38c10.45-.41,25.83-2.6,27.38,9.87.54,4.35-2.4,10.9-8.28,11.7Z"/>
    <path class="cls-1" d="M1397.71,638.32c.1,16.32-12.43,24.72-27.69,24.13-14.46-.54-24.39-9.08-24.23-24.24l.34-32.67,10.62.23.29,32.43c.08,9.31,5.62,15.08,13.74,15.65,8.05.57,16.01-3.94,16.06-13.17l.18-35.14,10.47.05.21,32.74Z"/>
    <path class="cls-1" d="M1139.47,636.57l-28.31.24-.16,15.83,32.52.27.26,8.3-43.44.08.06-56.23,41.5.16c.36,1.81.83,6.04.95,7.87l-31.63.25-.25,15.09,28.47.23.03,7.91Z"/>
    <rect class="cls-1" x="1269.73" y="627.72" width="56.18" height="11.06" transform="translate(662.3 1929.96) rotate(-89.9)"/>
  </g>
</svg>