<?xml version="1.0" encoding="UTF-8"?>
<svg id="Lager_2" data-name="Lager 2" xmlns="http://www.w3.org/2000/svg" viewBox="0 0 1920 1080">
  <defs>
    <style>
      .cls-1 {
        fill: #735943;
      }
    </style>
  </defs>
  <path class="cls-1" d="M1200.92,424.85c-21.82-9.62-47.37-9.62-69.59-.83-23.72,9.39-38.36,30.4-40.33,54.02-2.09,24.91,9.16,48.92,31.61,61.32,25.03,13.82,55.67,14.36,81.06,1.85,21.99-10.85,34.76-31.97,35.28-57.01.56-27.05-14.18-48.81-38.03-59.35ZM1164.92,528.95c-24.98,0-45.23-20.24-45.23-45.2s20.26-45.22,45.23-45.22,45.22,20.24,45.22,45.22-20.26,45.2-45.22,45.2Z"/>
  <path class="cls-1" d="M1409.11,481.09c-1.01-24.13-15.55-45.92-39.4-56.39-23.08-10.14-51.37-9.39-73.98,1.96-22.25,11.19-34.57,32.34-34.47,56.65.1,24.36,11.66,46.69,34.79,58.19,24.5,12.17,53.63,11.55,77.36-.36,23.44-11.76,36.74-34.73,35.69-60.05ZM1334.75,529.07c-24.91,0-45.1-20.19-45.1-45.1s20.19-45.09,45.1-45.09,45.12,20.19,45.12,45.09-20.21,45.1-45.12,45.1Z"/>
  <path class="cls-1" d="M1037.7,504.11c14.1-5.26,24.08-16.24,26.92-28.83,3.38-14.98.96-30.25-10.08-40.69-9.28-8.77-22.61-14.28-35.84-14.36l-68.07-.38.02,128.12,27.52.1.11-39.48,33.14-.08,29.03,39.83,29.34-.64-32.1-43.58ZM1017.97,486.47c-13.46,1.31-26.09,1.03-39.43.96l-.18-45.98,37.54.49c12.81.18,22.18,9.2,22.59,20.99.39,10.99-6.84,22.22-20.52,23.54Z"/>
  <path class="cls-1" d="M724.24,527.31c16.5,1.36,30.38-2.91,41.07-14.52l17.25,15.86c-20.42,24.25-62.15,26.02-88.6,14.86-36.11-15.24-50.28-58.76-30.28-92.83,23.04-39.25,87.81-44.11,119.16-11.84l-17.06,15.87c-15.52-14.05-35.58-18.03-54.6-11.5-19.73,6.78-29.81,24.87-27.81,45.58,2.02,20.96,18.65,36.69,40.88,38.53Z"/>
  <polygon class="cls-1" points="915.79 526.29 915.63 548.08 812.11 548.23 811.91 419.8 913.76 419.87 913.76 441.25 839.98 441.63 839.93 472.34 905.12 472.63 905.6 493.08 839.91 493.59 839.83 526.11 915.79 526.29"/>
  <polygon class="cls-1" points="480.16 477.32 480.21 498.73 414.4 499.01 414.1 548.08 385.97 547.84 386.14 419.66 487.43 419.88 487.61 441.33 414.54 441.81 414.46 477.17 480.16 477.32"/>
  <path class="cls-1" d="M1534.03,441.28l-43.32.31.05,105.77c-8.77.77-17.79.8-27.69.59l-.13-106.11-43.75-.21-.31-21.86,115.15.11v21.4Z"/>
  <path class="cls-1" d="M583.42,419.77l-27.95.13-61.19,127.81,29.01.57,13.35-28.99,65.86.05,13.15,28.98,28.78-1-61.01-127.55ZM545.88,498.59l23.83-51.52,23.9,51.18-47.73.34Z"/>
  <path class="cls-1" d="M1236.62,661.13l-.93-36.19-17.24,26.99c-6.48,10.15-15.8-17.79-24.89-25.68l-.89,33.57c-1.64,1.16-6.4,1.5-10.08,1.25l.03-56.04c2.89-.26,8.6.02,10.05,2.18l22.7,33.81,22.06-35.78,8.93.17-.02,55.49-9.72.25Z"/>
  <path class="cls-1" d="M991.22,605.89v54.77l-10.06.56-.9-37.54c-6.58,6.39-17.07,30.61-21.09,31.25-1.32.2-3.54-1.93-4.33-3.09l-18.03-26.5-1.09,35.66-9.82-.05.15-55.15c2.5-.85,8.85-1.14,10.19.9l22.35,34.11,22.12-33.96c1.45-2.24,7.97-1.94,10.52-.96Z"/>
  <path class="cls-1" d="M791.83,660.05l-12.16-14.54c-2.28-2.73-12.11-1.62-15.03-.47l-.99,16.01-9.98-.75v-55.07c17.26.17,45.29-4.67,48.76,15.27,1.51,8.69-2.03,17.64-12.03,21.7l12.49,18.41c-1.83.46-9.4,1.43-11.07-.57ZM784.62,634.82c6.38-.94,8.02-8.7,7.13-13.29-.68-3.53-5.91-8.32-10.18-8.37l-16.73-.2-.54,22.55c6.75.24,13,.39,20.32-.69Z"/>
  <path class="cls-1" d="M666.91,605.22l-.03,55.41,10,.42.67-16.53c9.65-.46,15.58-.57,22.66-1.52,10.47-1.4,15.7-11.04,15.53-20.24-.38-22.46-33.57-17.36-48.83-17.54ZM696.65,634.82c-7.22.98-12.35.93-19.34.82l.25-22.38c10.45-.41,25.83-2.6,27.38,9.87.54,4.35-2.4,10.9-8.28,11.7Z"/>
  <path class="cls-1" d="M1139.84,638.32c.1,16.32-12.43,24.72-27.69,24.13-14.46-.54-24.39-9.08-24.23-24.24l.34-32.67,10.62.23.29,32.43c.08,9.31,5.62,15.08,13.74,15.65,8.05.57,16.01-3.94,16.06-13.17l.18-35.14,10.47.05.21,32.74Z"/>
  <path class="cls-1" d="M881.6,636.57l-28.31.24-.16,15.83,32.52.27.26,8.3-43.44.08.06-56.23,41.5.16c.36,1.81.83,6.04.95,7.87l-31.63.25-.25,15.09,28.47.23.03,7.91Z"/>
  <rect class="cls-1" x="1011.86" y="627.72" width="56.18" height="11.06" transform="translate(404.88 1672.09) rotate(-89.9)"/>
</svg>