<?xml version="1.0" encoding="UTF-8"?>
<svg id="Lager_1" data-name="Lager 1" xmlns="http://www.w3.org/2000/svg" viewBox="0 0 375.04 103.45">
  <defs>
    <style>
      .cls-1 {
        fill: #fff;
      }
    </style>
  </defs>
  <path class="cls-1" d="M47.68,0c10.21,3.77,15.32,5.18,25.56,7.53.62,6.44.93,9.68,1.55,16.19-1.4-.87-2.1-1.31-3.5-2.22-5.25-.78-7.88-1.22-13.12-2.23-.4.68-.61,1.02-1.01,1.71v20.6c.4.79.6,1.19,1.01,1.97,1.72.08,2.58.11,4.3.18,1.29-.74,1.94-1.11,3.23-1.83v19.46c-1.29-.71-1.94-1.07-3.23-1.81-1.72.08-2.58.12-4.3.2-.4.73-.61,1.1-1.01,1.85,0,10.81,0,21.61,0,32.42.43,2.37.65,3.54,1.08,5.86-4.22,1.31-6.33,2.02-10.55,3.57.43-2.83.64-4.23,1.07-7.01V6.87c-.43-2.73-.64-4.1-1.07-6.87Z"/>
  <path class="cls-1" d="M105.41,89.87c-4.3.61-6.44.93-10.74,1.64.3-1.23.45-1.85.74-3.08-.76-4.5-1.13-6.86-1.89-11.66-.4-.59-.61-.89-1.01-1.49-3.37.31-5.06.47-8.43.82-.4.7-.61,1.06-1.01,1.76-.76,5.2-1.13,7.79-1.89,12.94.3,1.24.45,1.85.74,3.06-4.29.88-6.43,1.35-10.71,2.41.67-2.49,1.01-3.73,1.68-6.19,3.4-25.27,6.78-50.54,10.51-75.77-.38-1.94-.57-2.91-.94-4.85,4.67.9,7,1.29,11.67,2.02-.38,1.68-.57,2.53-.94,4.26,3.5,23.17,6.7,46.39,10.53,69.51.68,1.89,1.01,2.81,1.69,4.6ZM85.83,61.77c2-.09,2.99-.13,4.99-.21.32-.49.49-.74.81-1.23-1.32-10.58-1.98-16.04-3.31-26.75-1.32,10.55-1.98,16.06-3.3,27,.32.48.49.72.81,1.2Z"/>
  <path class="cls-1" d="M108.11,83.62c0-21.46,0-42.92,0-64.38,1.73-2.19,2.59-3.24,4.33-5.24,6.84.83,10.26,1.2,17.11,1.98,1.71,2.21,2.56,3.33,4.26,5.59v11.47c.43,1.81.65,2.73,1.08,4.58-4.3-.15-6.46-.21-10.76-.35.46-1.87.69-2.79,1.15-4.62v-4.74c-.38-.58-.57-.87-.95-1.46-2.68-.17-4.02-.26-6.69-.44-.41.54-.61.82-1.01,1.37,0,15.94,0,31.89,0,47.83.41.55.61.82,1.01,1.36,2.68-.2,4.02-.29,6.69-.48.38-.58.57-.88.95-1.46v-4.65c-.46-1.82-.69-2.75-1.15-4.61,4.3-.16,6.45-.24,10.76-.39-.43,1.85-.65,2.76-1.08,4.58v11.57c-1.71,2.3-2.56,3.44-4.26,5.69-6.85.81-10.27,1.21-17.11,2.1-1.73-2.02-2.6-3.08-4.33-5.3Z"/>
  <path class="cls-1" d="M139.9,85.57c.43-1.55.65-2.35,1.08-3.98,0-20.17,0-40.34,0-60.51-.43-1.6-.65-2.38-1.08-3.9,10.29,1.25,15.44,1.75,25.74,2.33.62,3.97.93,6.18,1.56,10.81-1.41-.54-2.11-.81-3.52-1.36-5.28-.22-7.93-.36-13.21-.7-.41.48-.61.72-1.02,1.21v14.13c.41.57.61.85,1.02,1.42,1.73.03,2.6.04,4.33.07,1.33-.57,1.99-.85,3.32-1.41v14.58c-1.33-.56-1.99-.85-3.32-1.42-1.73.02-2.6.04-4.33.06-.41.53-.61.79-1.02,1.32,0,6.12,0,9.16,0,14.81.41.49.61.73,1.02,1.22,5.28-.34,7.92-.48,13.21-.7,1.41-.55,2.11-.82,3.52-1.36-.62,4.74-.93,7-1.56,11.06-10.3.59-15.45,1.08-25.74,2.33Z"/>
  <path class="cls-1" d="M170.78,82.98c.43-1.35.65-2.06,1.08-3.5V23.35c-.43-1.47-.65-2.19-1.08-3.57,9,.39,13.5.46,22.5.32,1.73,1.68,2.6,2.56,4.34,4.38,0,9.8,0,19.6,0,29.4-1.73,2.28-2.6,3.42-4.34,5.66,1.49,8.34,2.24,12.5,3.73,19.54.54,1.52.81,2.26,1.36,3.68-4.26-.12-6.38-.15-10.64-.15.3-1.29.45-1.96.75-3.34-1.46-6.72-2.2-10.68-3.66-18.69-.27-.42-.41-.63-.68-1.05-1.11,0-1.67,0-2.78,0-.41.53-.61.79-1.02,1.32v18.4c.43,1.41.65,2.09,1.08,3.4-4.26.07-6.38.13-10.64.32ZM188,48.35c.41-.5.61-.75,1.02-1.24,0-6.74,0-10.13,0-16.28-.41-.45-.61-.68-1.02-1.13-2.66,0-3.98,0-6.64-.03-.41.44-.61.67-1.02,1.12v16.32c.41.5.61.75,1.02,1.25,2.66,0,3.98,0,6.64,0Z"/>
  <path class="cls-1" d="M229.73,22.64v57.39c-1.71,1.88-2.56,2.78-4.27,4.46-6.85-.68-10.28-.94-17.14-1.31-1.73-1.86-2.6-2.82-4.34-4.79V24.29c1.73-1.94,2.6-2.88,4.34-4.72,6.86-.37,10.28-.63,17.14-1.31,1.71,1.65,2.56,2.53,4.27,4.38ZM220.04,28.79c-2.6.15-3.9.21-6.5.33-.41.48-.61.72-1.02,1.2v42.2c.41.48.61.72,1.02,1.2,2.6.12,3.9.18,6.5.33.41-.45.61-.67,1.02-1.12V29.91c-.41-.45-.61-.68-1.02-1.12Z"/>
  <path class="cls-1" d="M261.8,19.73v63.35c-1.7,2.17-2.55,3.22-4.26,5.19-6.84-.86-10.27-1.24-17.12-2.06-1.73-2.2-2.6-3.31-4.33-5.56V22.03c1.73-2.22,2.6-3.31,4.33-5.47,6.85-.8,10.27-1.16,17.12-1.96,1.7,1.95,2.56,2.98,4.26,5.13ZM252.13,26.63c-2.6.17-3.9.25-6.49.42-.41.54-.61.81-1.01,1.35v46.08c.41.54.61.81,1.01,1.35,2.6.18,3.9.27,6.49.46.41-.49.61-.74,1.01-1.25V27.89c-.41-.51-.61-.76-1.01-1.25Z"/>
  <path class="cls-1" d="M296.42,24.42c-1.46-.46-2.18-.69-3.64-1.13-2.56.3-3.84.44-6.41.7-.38.64-.57.95-.94,1.59v61.91c.43,2.05.65,3.07,1.08,5.11-4.29-.79-6.44-1.14-10.73-1.8.43-1.77.65-2.68,1.08-4.52V26.3c-.41-.55-.61-.82-1.01-1.35-2.62.22-3.93.32-6.55.52-1.41.66-2.11.99-3.51,1.64.62-5.66.93-8.42,1.55-13.69,11-1.4,16.49-2.16,27.47-4.37.65,5.96.97,9.06,1.62,15.38Z"/>
  <path class="cls-1" d="M327.37,32.67c-4.27.54-6.41.78-10.68,1.22.4-2.48.61-3.73,1.01-6.24v-6.37c-.4-.64-.61-.96-1.01-1.59-2.61.5-3.91.73-6.52,1.16-.4.75-.61,1.12-1.01,1.86v19.45c.4.71.61,1.07,1.01,1.8,4.74-.18,7.1-.28,11.83-.51,1.69,3.23,2.54,4.88,4.23,8.29v42.81c-1.69,2.9-2.54,4.3-4.23,7.02-6.8-2.3-10.2-3.27-17.02-4.99-1.78-3.34-2.67-4.97-4.45-8.15v-14.67c-.38-2.26-.57-3.4-.94-5.65,4.26.34,6.39.52,10.64.93-.43,2.31-.65,3.46-1.08,5.73v6.05c.4.74.61,1.11,1.01,1.86,2.61.46,3.92.7,6.52,1.21.4-.63.61-.95,1.01-1.58v-20.44c-.4-.79-.61-1.19-1.01-1.97-4.68-.23-7.02-.34-11.71-.53-1.78-3.14-2.67-4.67-4.45-7.68V14.79c1.78-3.13,2.67-4.72,4.45-8,6.81-1.66,10.22-2.61,17.02-4.89,1.69,2.66,2.54,4.04,4.23,6.89v17.55c.46,2.52.69,3.78,1.14,6.34Z"/>
</svg>